<mxfile host="drawio-plugin" modified="2022-09-20T06:12:40.204Z" agent="5.0 (Windows NT 6.2; Win64; x64) AppleWebKit/537.36 (KHTML, like Gecko) Chrome/98.0.4758.102 Safari/537.36" version="15.5.4" etag="RWlTn2t-pYiGtwc9Vir9" type="embed"><diagram id="w3RTN49YJ5wtaf6aWrlg" name="Page-1"><mxGraphModel dx="2616" dy="1060" grid="1" gridSize="10" guides="1" tooltips="1" connect="1" arrows="1" fold="1" page="1" pageScale="1" pageWidth="850" pageHeight="1100" math="0" shadow="0"><root><mxCell id="0"/><mxCell id="1" parent="0"/><mxCell id="48" style="edgeStyle=orthogonalEdgeStyle;rounded=0;orthogonalLoop=1;jettySize=auto;html=1;entryX=0.5;entryY=0;entryDx=0;entryDy=0;fontSize=16;" edge="1" parent="1" source="2" target="47"><mxGeometry relative="1" as="geometry"/></mxCell><mxCell id="2" value="parse" style="rounded=0;whiteSpace=wrap;html=1;fontSize=16;" vertex="1" parent="1"><mxGeometry x="300" y="180" width="120" height="60" as="geometry"/></mxCell><mxCell id="24" style="edgeStyle=orthogonalEdgeStyle;rounded=0;orthogonalLoop=1;jettySize=auto;html=1;entryX=0;entryY=0;entryDx=0;entryDy=0;exitX=0;exitY=0.5;exitDx=0;exitDy=0;fontSize=16;" edge="1" parent="1" source="12" target="21"><mxGeometry relative="1" as="geometry"><mxPoint x="250" y="620" as="sourcePoint"/></mxGeometry></mxCell><mxCell id="6" value="" style="edgeStyle=orthogonalEdgeStyle;rounded=0;orthogonalLoop=1;jettySize=auto;html=1;fontSize=16;" edge="1" parent="1" source="5" target="2"><mxGeometry relative="1" as="geometry"/></mxCell><mxCell id="5" value="*3\r\n$3\r\nSET\r\n$3\r\nkey\r\n$5\r\nvalue\r\n" style="text;html=1;strokeColor=none;fillColor=none;align=center;verticalAlign=middle;whiteSpace=wrap;rounded=0;fontSize=16;" vertex="1" parent="1"><mxGeometry x="155" y="70" width="410" height="30" as="geometry"/></mxCell><mxCell id="7" value="bufReader" style="text;html=1;strokeColor=none;fillColor=none;align=center;verticalAlign=middle;whiteSpace=wrap;rounded=0;fontSize=16;" vertex="1" parent="1"><mxGeometry x="280" y="260" width="60" height="30" as="geometry"/></mxCell><mxCell id="8" value="state" style="text;html=1;strokeColor=none;fillColor=none;align=center;verticalAlign=middle;whiteSpace=wrap;rounded=0;fontSize=16;" vertex="1" parent="1"><mxGeometry x="380" y="260" width="60" height="30" as="geometry"/></mxCell><mxCell id="12" value="state.bulkLen==0?" style="rhombus;whiteSpace=wrap;html=1;rounded=0;fontSize=16;" vertex="1" parent="1"><mxGeometry x="270" y="420" width="180" height="100" as="geometry"/></mxCell><mxCell id="25" style="edgeStyle=orthogonalEdgeStyle;rounded=0;orthogonalLoop=1;jettySize=auto;html=1;entryX=1;entryY=0;entryDx=0;entryDy=0;exitX=0.5;exitY=1;exitDx=0;exitDy=0;fontSize=16;" edge="1" parent="1" source="12" target="21"><mxGeometry relative="1" as="geometry"><mxPoint x="510" y="620" as="sourcePoint"/></mxGeometry></mxCell><mxCell id="32" style="edgeStyle=orthogonalEdgeStyle;rounded=0;orthogonalLoop=1;jettySize=auto;html=1;fontSize=16;" edge="1" parent="1" source="21" target="30"><mxGeometry relative="1" as="geometry"/></mxCell><mxCell id="33" style="edgeStyle=orthogonalEdgeStyle;rounded=0;orthogonalLoop=1;jettySize=auto;html=1;exitX=1;exitY=0.5;exitDx=0;exitDy=0;fontSize=16;" edge="1" parent="1" source="21" target="39"><mxGeometry relative="1" as="geometry"><mxPoint x="590" y="870" as="targetPoint"/></mxGeometry></mxCell><mxCell id="21" value="state.readingMultiLine?" style="rhombus;whiteSpace=wrap;html=1;fontSize=16;" vertex="1" parent="1"><mxGeometry x="170" y="650" width="320" height="80" as="geometry"/></mxCell><mxCell id="26" value="line" style="text;html=1;strokeColor=none;fillColor=none;align=center;verticalAlign=middle;whiteSpace=wrap;rounded=0;fontSize=16;" vertex="1" parent="1"><mxGeometry x="360" y="550" width="60" height="30" as="geometry"/></mxCell><mxCell id="27" value="line" style="text;html=1;strokeColor=none;fillColor=none;align=center;verticalAlign=middle;whiteSpace=wrap;rounded=0;fontSize=16;" vertex="1" parent="1"><mxGeometry x="190" y="565" width="60" height="30" as="geometry"/></mxCell><mxCell id="42" style="edgeStyle=orthogonalEdgeStyle;rounded=0;orthogonalLoop=1;jettySize=auto;html=1;exitX=0;exitY=0.5;exitDx=0;exitDy=0;entryX=0.25;entryY=0;entryDx=0;entryDy=0;fontSize=16;" edge="1" parent="1" source="30" target="36"><mxGeometry relative="1" as="geometry"/></mxCell><mxCell id="43" style="edgeStyle=orthogonalEdgeStyle;rounded=0;orthogonalLoop=1;jettySize=auto;html=1;entryX=0.25;entryY=0;entryDx=0;entryDy=0;exitX=0.5;exitY=1;exitDx=0;exitDy=0;fontSize=16;" edge="1" parent="1" source="30" target="37"><mxGeometry relative="1" as="geometry"/></mxCell><mxCell id="44" style="edgeStyle=orthogonalEdgeStyle;rounded=0;orthogonalLoop=1;jettySize=auto;html=1;entryX=0.459;entryY=-0.05;entryDx=0;entryDy=0;entryPerimeter=0;fontSize=16;" edge="1" parent="1" source="30" target="38"><mxGeometry relative="1" as="geometry"/></mxCell><mxCell id="30" value="line[0]=?" style="rhombus;whiteSpace=wrap;html=1;fontSize=16;" vertex="1" parent="1"><mxGeometry x="150" y="870" width="80" height="80" as="geometry"/></mxCell><mxCell id="34" value="false" style="text;html=1;strokeColor=none;fillColor=none;align=center;verticalAlign=middle;whiteSpace=wrap;rounded=0;fontSize=16;" vertex="1" parent="1"><mxGeometry x="230" y="760" width="60" height="30" as="geometry"/></mxCell><mxCell id="35" value="true" style="text;html=1;strokeColor=none;fillColor=none;align=center;verticalAlign=middle;whiteSpace=wrap;rounded=0;fontSize=16;" vertex="1" parent="1"><mxGeometry x="615" y="820" width="60" height="30" as="geometry"/></mxCell><mxCell id="70" style="edgeStyle=orthogonalEdgeStyle;rounded=0;orthogonalLoop=1;jettySize=auto;html=1;entryX=0;entryY=0.5;entryDx=0;entryDy=0;fontSize=16;" edge="1" parent="1" source="36" target="2"><mxGeometry relative="1" as="geometry"><Array as="points"><mxPoint x="60" y="1080"/><mxPoint x="60" y="210"/></Array></mxGeometry></mxCell><mxCell id="36" value="parseMultiBulkHeader" style="rounded=0;whiteSpace=wrap;html=1;fontSize=16;" vertex="1" parent="1"><mxGeometry x="80" y="1050" width="190" height="60" as="geometry"/></mxCell><mxCell id="37" value="parseBulkHeader" style="rounded=0;whiteSpace=wrap;html=1;fontSize=16;" vertex="1" parent="1"><mxGeometry x="280" y="1050" width="140" height="60" as="geometry"/></mxCell><mxCell id="38" value="parsesingleLineReply" style="rounded=0;whiteSpace=wrap;html=1;fontSize=16;" vertex="1" parent="1"><mxGeometry x="430" y="1050" width="185" height="60" as="geometry"/></mxCell><mxCell id="46" style="edgeStyle=orthogonalEdgeStyle;rounded=0;orthogonalLoop=1;jettySize=auto;html=1;entryX=0.5;entryY=0;entryDx=0;entryDy=0;fontSize=16;" edge="1" parent="1" source="39" target="41"><mxGeometry relative="1" as="geometry"/></mxCell><mxCell id="39" value="readBody" style="rounded=0;whiteSpace=wrap;html=1;fontSize=16;" vertex="1" parent="1"><mxGeometry x="630" y="990" width="120" height="60" as="geometry"/></mxCell><mxCell id="55" style="edgeStyle=orthogonalEdgeStyle;rounded=0;orthogonalLoop=1;jettySize=auto;html=1;entryX=1;entryY=0.5;entryDx=0;entryDy=0;fontSize=16;exitX=1;exitY=0.5;exitDx=0;exitDy=0;" edge="1" parent="1" source="41" target="47"><mxGeometry relative="1" as="geometry"/></mxCell><mxCell id="57" value="" style="edgeStyle=orthogonalEdgeStyle;rounded=0;orthogonalLoop=1;jettySize=auto;html=1;fontSize=16;" edge="1" parent="1" source="41" target="56"><mxGeometry relative="1" as="geometry"/></mxCell><mxCell id="41" value="finised?" style="rhombus;whiteSpace=wrap;html=1;fontSize=16;" vertex="1" parent="1"><mxGeometry x="595" y="1120" width="190" height="80" as="geometry"/></mxCell><mxCell id="49" style="edgeStyle=orthogonalEdgeStyle;rounded=0;orthogonalLoop=1;jettySize=auto;html=1;entryX=0.5;entryY=0;entryDx=0;entryDy=0;fontSize=16;" edge="1" parent="1" source="47" target="12"><mxGeometry relative="1" as="geometry"/></mxCell><mxCell id="47" value="readLine" style="rounded=0;whiteSpace=wrap;html=1;fontSize=16;" vertex="1" parent="1"><mxGeometry x="300" y="300" width="120" height="60" as="geometry"/></mxCell><mxCell id="52" value="*" style="text;html=1;strokeColor=none;fillColor=none;align=center;verticalAlign=middle;whiteSpace=wrap;rounded=0;fontSize=22;fontStyle=0" vertex="1" parent="1"><mxGeometry x="70" y="970" width="60" height="30" as="geometry"/></mxCell><mxCell id="53" value="$" style="text;html=1;strokeColor=none;fillColor=none;align=center;verticalAlign=middle;whiteSpace=wrap;rounded=0;fontSize=16;" vertex="1" parent="1"><mxGeometry x="200" y="960" width="60" height="30" as="geometry"/></mxCell><mxCell id="54" value="else" style="text;html=1;strokeColor=none;fillColor=none;align=center;verticalAlign=middle;whiteSpace=wrap;rounded=0;fontSize=16;" vertex="1" parent="1"><mxGeometry x="450" y="970" width="60" height="30" as="geometry"/></mxCell><mxCell id="56" value="ch&amp;lt;-reply" style="whiteSpace=wrap;html=1;fontSize=16;" vertex="1" parent="1"><mxGeometry x="530" y="1290" width="120" height="60" as="geometry"/></mxCell><mxCell id="58" value="true" style="text;html=1;strokeColor=none;fillColor=none;align=center;verticalAlign=middle;whiteSpace=wrap;rounded=0;fontSize=16;" vertex="1" parent="1"><mxGeometry x="590" y="1200" width="60" height="30" as="geometry"/></mxCell><mxCell id="59" value="false" style="text;html=1;strokeColor=none;fillColor=none;align=center;verticalAlign=middle;whiteSpace=wrap;rounded=0;fontSize=16;" vertex="1" parent="1"><mxGeometry x="730" y="895" width="60" height="30" as="geometry"/></mxCell></root></mxGraphModel></diagram></mxfile>